<svg xmlns="http://www.w3.org/2000/svg" viewBox="0 0 650 150" width="100%" height="100%">
  <defs>
    <linearGradient id="gradienteEscudo" x1="0%" y1="0%" x2="100%" y2="100%">
      <stop offset="0%" style="stop-color:#145A24;stop-opacity:1" /> <stop offset="100%" style="stop-color:#2A8C3F;stop-opacity:1" /> </linearGradient>
  </defs>

  <g transform="translate(10, 5)">
    <path d="M70,5 L10,35 L20,110 L70,140 L120,110 L130,35 Z" fill="url(#gradienteEscudo)" />

    <path d="M66,22 L55,10 M74,22 L85,10" stroke="white" stroke-width="2.5" fill="none" stroke-linecap="round"/>
    
    <ellipse cx="70" cy="28" rx="7" ry="6" fill="white"/>
    
    <ellipse cx="70" cy="48" rx="6" ry="12" fill="white"/>
    
    <ellipse cx="70" cy="85" rx="13" ry="20" fill="white"/>
    
    <path d="M66,40 L45,30 L35,45 M74,40 L95,30 L105,45" stroke="white" stroke-width="2.5" fill="none" stroke-linejoin="round" stroke-linecap="round"/>
    <path d="M65,50 L35,55 L25,75 M75,50 L105,55 L115,75" stroke="white" stroke-width="2.5" fill="none" stroke-linejoin="round" stroke-linecap="round"/>
    <path d="M67,60 L45,85 L35,115 M73,60 L95,85 L105,115" stroke="white" stroke-width="2.5" fill="none" stroke-linejoin="round" stroke-linecap="round"/>
  </g>
  
  <text x="160" y="85" font-family="Arial, Helvetica, sans-serif" font-weight="900" font-size="65" fill="#111111" letter-spacing="-2">FUMICHISA</text>
  <text x="165" y="115" font-family="Arial, Helvetica, sans-serif" font-weight="700" font-size="15" fill="#145A24" letter-spacing="2">BIOSEGURIDAD ESTRUCTURAL</text>
</svg>
