<svg xmlns="http://www.w3.org/2000/svg" viewBox="0 0 500 150" width="100%" height="100%">
  <defs>
    <linearGradient id="gradienteEscudo" x1="0%" y1="0%" x2="100%" y2="100%">
      <stop offset="0%" style="stop-color:#1B662E;stop-opacity:1" />
      <stop offset="100%" style="stop-color:#2A8C3F;stop-opacity:1" />
    </linearGradient>
  </defs>
  <g transform="translate(10, 10)">
      <polygon points="70,5 10,30 20,110 70,140 120,110 130,30" fill="url(#gradienteEscudo)" stroke="#145A24" stroke-width="1"/>
      <circle cx="70" cy="40" r="8" fill="#ffffff" />
      <path d="M65,33 L55,15 M75,33 L85,15" stroke="#ffffff" stroke-width="3" fill="none" stroke-linecap="round"/>
      <ellipse cx="70" cy="68" rx="6" ry="14" fill="#ffffff" />
      <polygon points="70,85 55,115 70,130 85,115" fill="#ffffff" />
      <path d="M64,60 L40,50 L30,65 M76,60 L100,50 L110,65 M64,75 L35,80 L25,95 M76,75 L105,80 L115,95 M66,90 L45,110 L40,125 M74,90 L95,110 L100,125" stroke="#ffffff" stroke-width="3" fill="none" stroke-linecap="round" stroke-linejoin="round"/>
  </g>
  <text x="160" y="85" font-family="'Montserrat', sans-serif" font-weight="900" font-size="65" fill="#111111" letter-spacing="-2">FUMICHISA</text>
  <text x="165" y="115" font-family="'Montserrat', sans-serif" font-weight="700" font-size="15" fill="#1B662E" letter-spacing="2.5">CONTROL ESTRUCTURAL DE PLAGAS Y SANITIZACIÓN</text>
</svg>
